<?xml version="1.0" encoding="utf-8"?>
<!-- Generator: Adobe Illustrator 26.5.0, SVG Export Plug-In . SVG Version: 6.00 Build 0)  -->
<svg version="1.1" id="Capa_1" xmlns="http://www.w3.org/2000/svg" xmlns:xlink="http://www.w3.org/1999/xlink" x="0px" y="0px"
	 viewBox="0 0 1920 1080" style="enable-background:new 0 0 1920 1080;" xml:space="preserve">
<style type="text/css">
	.st0{fill:#F84616;}
	.st1{fill:#FFFFFF;}
	.st2{fill:#003B49;}
</style>
<g>
	<path class="st0" d="M108.9,682.8l369.7,311.3c25.7,21.7,62.9,23.1,90.2,3.6l606.7-434.2c22.1-15.8,33.7-42.5,30.1-69.5
		l-38.5-290.8c-4.2-31.4-27.9-56.6-59-62.6L499.3,23.3c-16.9-3.3-34.5-0.5-49.6,7.9l-151.1,83.7c-14.9,8.2-26.4,21.4-32.7,37.2
		L88,599.3C76.2,628.8,84.7,662.4,108.9,682.8z"/>
	<g>
		<path class="st1" d="M442.8,315.7c-20.6,0-36.3,6.4-47.2,19.2c-10.9,12.8-16.3,30.6-16.3,53.3c0,10.8,1.3,20.6,3.9,29.6
			c2.6,9,6.4,16.6,11.6,23c5.1,6.4,11.5,11.3,19.1,14.9c7.6,3.6,16.5,5.3,26.7,5.3c6.4,0,11.8-0.2,16.5-0.7c4.6-0.5,8.3-1.1,11-1.9
			v-71.9h36.4v96.2c-5,1.9-13.5,4-25.4,6.4c-11.9,2.3-25.7,3.5-41.3,3.5c-14.4,0-27.6-2.3-39.6-6.9c-11.9-4.6-22.1-11.4-30.5-20.2
			c-8.4-8.9-14.9-19.7-19.5-32.6c-4.6-12.9-6.9-27.7-6.9-44.5c0-16.7,2.5-31.6,7.7-44.5c5.1-12.9,12.1-23.8,20.9-32.8
			c8.9-9,19.2-15.7,31.2-20.4c11.9-4.6,24.6-6.9,38.1-6.9c9.2,0,17.5,0.6,24.7,1.9c7.2,1.3,13.4,2.6,18.6,4.2
			c5.2,1.5,9.5,3.2,12.9,4.9c3.4,1.7,5.7,3,7.1,3.8l-11,29.7c-5.8-3.5-12.9-6.4-21.5-8.8C461.2,316.9,452.2,315.7,442.8,315.7z"/>
		<path class="st1" d="M524.8,413.6c0-13.3,2-24.9,5.9-34.9c3.9-10,9.2-18.3,15.7-25c6.5-6.6,14-11.6,22.5-15
			c8.5-3.4,17.1-5.1,26-5.1c20.8,0,37,6.5,48.7,19.3c11.6,12.9,17.5,32.2,17.5,57.8c0,1.9,0,4.1-0.1,6.5c-0.1,2.4-0.2,4.6-0.4,6.5
			h-99.6c1,12.1,5.2,21.5,12.9,28.2c7.6,6.6,18.6,10,33.1,10c8.5,0,16.2-0.8,23.2-2.3c7-1.5,12.6-3.2,16.6-4.9l4.6,28.6
			c-1.9,1-4.6,2-7.9,3c-3.4,1.1-7.2,2-11.6,2.9c-4.3,0.9-9,1.6-14,2.2c-5,0.6-10.1,0.9-15.3,0.9c-13.3,0-24.8-2-34.7-5.9
			c-9.8-3.9-17.9-9.4-24.3-16.5c-6.4-7-11.1-15.3-14.2-24.8C526.3,435.4,524.8,425,524.8,413.6z M626.1,398c0-4.8-0.7-9.4-2-13.7
			c-1.3-4.3-3.3-8.1-5.9-11.3c-2.6-3.2-5.8-5.7-9.5-7.5c-3.8-1.8-8.2-2.7-13.4-2.7c-5.4,0-10.1,1-14.2,3c-4,2-7.5,4.7-10.3,7.9
			c-2.8,3.3-5,7-6.5,11.3c-1.5,4.2-2.6,8.6-3.2,13H626.1z"/>
		<path class="st1" d="M823.1,412.8c0,11.9-1.7,22.8-5.2,32.6c-3.5,9.8-8.4,18.2-14.7,25.1c-6.4,6.9-14,12.3-23,16.2
			c-9,3.8-18.8,5.8-29.6,5.8c-10.8,0-20.6-1.9-29.5-5.8c-8.9-3.8-16.5-9.2-22.8-16.2c-6.4-6.9-11.3-15.3-14.9-25.1
			c-3.6-9.8-5.3-20.7-5.3-32.6c0-11.9,1.8-22.8,5.3-32.5c3.6-9.7,8.6-18,15-25c6.4-6.9,14.1-12.3,23-16c8.9-3.8,18.6-5.6,29.2-5.6
			c10.6,0,20.4,1.9,29.3,5.6c9,3.8,16.6,9.1,23,16c6.4,6.9,11.3,15.3,14.9,25C821.3,390,823.1,400.8,823.1,412.8z M787.3,412.8
			c0-15-3.2-26.9-9.7-35.7c-6.5-8.8-15.4-13.1-27-13.1s-20.6,4.4-27,13.1c-6.5,8.8-9.7,20.6-9.7,35.7c0,15.2,3.2,27.2,9.7,36.1
			c6.4,8.9,15.4,13.3,27,13.3s20.5-4.4,27-13.3C784,440,787.3,428,787.3,412.8z"/>
		<path class="st1" d="M909.1,284c8.1,0,15.2,0.7,21.4,2.2c6.2,1.4,10.8,2.7,13.9,3.9l-6.6,28.9c-3.3-1.5-7.1-2.8-11.4-3.8
			c-4.3-1-9-1.4-14-1.4c-5.6,0-10.3,0.8-14.2,2.5c-3.9,1.6-6.9,3.9-9.2,6.8c-2.3,2.9-3.9,6.4-4.9,10.5c-1,4.1-1.4,8.6-1.4,13.4V357
			h54.9v29.2h-54.9v102.2h-34.9V346.4c0-19.4,5.1-34.7,15.3-45.8C873.1,289.5,888.5,284,909.1,284z"/>
		<path class="st1" d="M1001.8,333.6c11.6,0,21.3,1.4,29.2,4.3c7.9,2.9,14.2,6.9,18.9,12.1c4.7,5.2,8.1,11.5,10.1,18.9
			c2,7.4,3,15.5,3,24.4V485c-5.4,1.2-13.5,2.6-24.4,4.2c-10.9,1.6-23.2,2.5-36.8,2.5c-9.1,0-17.3-0.9-24.8-2.6
			c-7.5-1.7-13.9-4.5-19.2-8.4c-5.3-3.8-9.4-8.9-12.4-15c-3-6.2-4.5-13.8-4.5-22.8c0-8.7,1.7-16,5.1-21.9c3.4-6,7.9-10.8,13.7-14.6
			s12.5-6.4,20.1-8.1c7.6-1.6,15.5-2.5,23.8-2.5c3.8,0,7.9,0.2,12.1,0.7c4.2,0.5,8.8,1.3,13.6,2.5v-5.8c0-4-0.5-7.9-1.4-11.6
			c-1-3.7-2.6-6.9-5.1-9.7c-2.4-2.8-5.6-5-9.5-6.5c-3.9-1.5-8.9-2.3-14.9-2.3c-8.1,0-15.5,0.6-22.2,1.7c-6.7,1.2-12.2,2.5-16.5,4
			l-4.3-28.3c4.4-1.5,10.9-3.1,19.3-4.6C983.1,334.4,992.2,333.6,1001.8,333.6z M1004.7,463.9c10.8,0,19-0.6,24.5-1.7v-38.7
			c-1.9-0.6-4.7-1.2-8.4-1.7c-3.7-0.6-7.7-0.9-12.1-0.9c-3.9,0-7.8,0.3-11.7,0.9c-3.9,0.6-7.5,1.6-10.7,3.2
			c-3.2,1.5-5.7,3.7-7.7,6.5c-1.9,2.8-2.9,6.3-2.9,10.5c0,8.3,2.6,14,7.8,17.2C988.8,462.3,995.8,463.9,1004.7,463.9z"/>
		<path class="st1" d="M1141,491.3c-10.4-0.2-19-1.3-25.8-3.5c-6.8-2.1-12.3-5.1-16.3-9.1c-4-3.9-6.9-8.9-8.5-14.7
			c-1.6-5.9-2.5-12.6-2.5-20.1V289.8l34.9-5.8v153.3c0,4.2,0.3,7.8,1,10.7c0.7,2.9,1.9,5.3,3.6,7.4c1.7,2,4.1,3.6,7.1,4.6
			c3,1.1,6.8,1.9,11.4,2.5L1141,491.3z"/>
	</g>
</g>
<g>
	<g>
		<path class="st2" d="M1116.1,726.3h11.8v84.3h-11.8V726.3z"/>
		<path class="st2" d="M1148.1,749.2c2.6-0.6,6-1.3,10.3-2.1c4.3-0.7,9.2-1.1,14.8-1.1c5,0,9.2,0.7,12.5,2.1c3.3,1.4,6,3.4,8,6
			c2,2.6,3.4,5.6,4.2,9.2c0.8,3.6,1.2,7.5,1.2,11.8v35.5h-11.3v-33.1c0-3.9-0.3-7.2-0.8-10c-0.5-2.8-1.4-5-2.6-6.7
			c-1.2-1.7-2.8-2.9-4.9-3.7c-2-0.8-4.5-1.2-7.5-1.2c-1.2,0-2.5,0-3.8,0.1c-1.3,0.1-2.5,0.2-3.7,0.3c-1.2,0.1-2.2,0.3-3.2,0.4
			c-0.9,0.2-1.6,0.3-2,0.4v53.4h-11.3V749.2z"/>
		<path class="st2" d="M1257.6,804.3c-1,0.7-2.9,1.5-5.7,2.5c-2.8,1-6.1,1.5-9.8,1.5c-3.8,0-7.4-0.6-10.8-1.8
			c-3.4-1.2-6.3-3.1-8.8-5.7c-2.5-2.6-4.5-5.7-6-9.5c-1.5-3.8-2.2-8.4-2.2-13.6c0-4.6,0.7-8.9,2.1-12.7c1.4-3.9,3.4-7.2,6-10
			c2.6-2.8,5.9-5,9.7-6.6c3.8-1.6,8.1-2.4,12.9-2.4c5.3,0,9.9,0.4,13.8,1.2c3.9,0.8,7.2,1.5,9.9,2.1v56.5c0,9.7-2.5,16.8-7.5,21.2
			c-5,4.4-12.7,6.6-22.9,6.6c-4,0-7.7-0.3-11.3-1c-3.5-0.7-6.6-1.4-9.2-2.3l2.1-9.9c2.3,0.9,5.1,1.7,8.3,2.4c3.3,0.7,6.7,1,10.3,1
			c6.7,0,11.6-1.3,14.5-4c3-2.7,4.4-6.9,4.4-12.8V804.3z M1257.4,757.3c-1.1-0.3-2.7-0.6-4.6-0.9c-1.9-0.3-4.5-0.4-7.7-0.4
			c-6.1,0-10.8,2-14.1,6c-3.3,4-4.9,9.2-4.9,15.8c0,3.7,0.5,6.8,1.4,9.4c0.9,2.6,2.2,4.7,3.8,6.4c1.6,1.7,3.4,3,5.5,3.8
			c2.1,0.8,4.2,1.2,6.4,1.2c3,0,5.8-0.4,8.3-1.3c2.5-0.8,4.5-1.8,6-3V757.3z"/>
		<path class="st2" d="M1284.7,779.1c0-5.6,0.8-10.5,2.4-14.7c1.6-4.2,3.8-7.6,6.5-10.4c2.7-2.8,5.8-4.8,9.2-6.2
			c3.5-1.4,7.1-2.1,10.7-2.1c8.5,0,15,2.7,19.6,8c4.5,5.3,6.8,13.4,6.8,24.3c0,0.5,0,1.1,0,1.9c0,0.8,0,1.5-0.1,2.1h-43.3
			c0.5,6.6,2.4,11.6,5.7,15c3.3,3.4,8.5,5.1,15.6,5.1c4,0,7.3-0.3,10-1c2.7-0.7,4.8-1.4,6.1-2l1.6,9.5c-1.4,0.7-3.8,1.5-7.2,2.3
			c-3.4,0.8-7.4,1.2-11.7,1.2c-5.5,0-10.3-0.8-14.3-2.5c-4-1.7-7.3-4-9.9-6.9c-2.6-2.9-4.5-6.4-5.8-10.4
			C1285.3,788.3,1284.7,783.9,1284.7,779.1z M1328.1,772.9c0.1-5.1-1.2-9.3-3.8-12.6c-2.6-3.3-6.3-4.9-10.9-4.9
			c-2.6,0-4.9,0.5-6.9,1.5c-2,1-3.7,2.3-5,4c-1.4,1.6-2.5,3.5-3.2,5.6c-0.8,2.1-1.3,4.3-1.5,6.4H1328.1z"/>
		<path class="st2" d="M1356.2,749.2c2.6-0.6,6-1.3,10.3-2.1c4.3-0.7,9.2-1.1,14.8-1.1c5,0,9.2,0.7,12.5,2.1c3.3,1.4,6,3.4,8,6
			c2,2.6,3.4,5.6,4.2,9.2c0.8,3.6,1.2,7.5,1.2,11.8v35.5H1396v-33.1c0-3.9-0.3-7.2-0.8-10c-0.5-2.8-1.4-5-2.6-6.7
			c-1.2-1.7-2.8-2.9-4.9-3.7c-2-0.8-4.5-1.2-7.5-1.2c-1.2,0-2.5,0-3.8,0.1c-1.3,0.1-2.5,0.2-3.7,0.3c-1.2,0.1-2.2,0.3-3.2,0.4
			c-0.9,0.2-1.6,0.3-2,0.4v53.4h-11.3V749.2z"/>
		<path class="st2" d="M1431.7,735.9c-2,0-3.8-0.7-5.2-2c-1.4-1.3-2.1-3.1-2.1-5.4c0-2.3,0.7-4.1,2.1-5.4c1.4-1.3,3.1-2,5.2-2
			c2,0,3.7,0.7,5.2,2c1.4,1.3,2.1,3.1,2.1,5.4c0,2.3-0.7,4.1-2.1,5.4C1435.4,735.2,1433.7,735.9,1431.7,735.9z M1437.4,810.6h-11.3
			v-63.3h11.3V810.6z"/>
		<path class="st2" d="M1453.3,779.1c0-5.6,0.8-10.5,2.4-14.7c1.6-4.2,3.8-7.6,6.5-10.4c2.7-2.8,5.8-4.8,9.2-6.2
			c3.5-1.4,7.1-2.1,10.7-2.1c8.5,0,15,2.7,19.6,8c4.5,5.3,6.8,13.4,6.8,24.3c0,0.5,0,1.1,0,1.9c0,0.8,0,1.5-0.1,2.1h-43.3
			c0.5,6.6,2.4,11.6,5.7,15c3.3,3.4,8.5,5.1,15.6,5.1c4,0,7.3-0.3,10-1c2.7-0.7,4.8-1.4,6.1-2l1.6,9.5c-1.4,0.7-3.8,1.5-7.2,2.3
			c-3.4,0.8-7.4,1.2-11.7,1.2c-5.5,0-10.3-0.8-14.3-2.5c-4-1.7-7.3-4-9.9-6.9c-2.6-2.9-4.5-6.4-5.8-10.4
			C1454,788.3,1453.3,783.9,1453.3,779.1z M1496.8,772.9c0.1-5.1-1.2-9.3-3.8-12.6c-2.6-3.3-6.3-4.9-10.9-4.9
			c-2.6,0-4.9,0.5-6.9,1.5c-2,1-3.7,2.3-5,4c-1.4,1.6-2.5,3.5-3.2,5.6c-0.8,2.1-1.3,4.3-1.5,6.4H1496.8z"/>
		<path class="st2" d="M1548.2,746c1,0,2.1,0.1,3.3,0.2c1.3,0.1,2.5,0.3,3.7,0.5c1.2,0.2,2.3,0.4,3.3,0.6c1,0.2,1.8,0.4,2.3,0.5
			l-1.9,9.9c-0.9-0.3-2.4-0.7-4.4-1.2c-2.1-0.4-4.7-0.7-8-0.7c-2.1,0-4.2,0.2-6.3,0.7c-2.1,0.5-3.4,0.8-4.1,0.9v53.2h-11.3V750
			c2.7-1,6-1.9,10-2.7C1538.8,746.4,1543.3,746,1548.2,746z"/>
		<path class="st2" d="M1592.3,723.4l-17.2,16.7l-5.7-5.1l15.6-18.7L1592.3,723.4z M1583.2,810.6h-11.3v-63.3h11.3V810.6z"/>
		<path class="st2" d="M1623.1,745.8c4.5,0,8.4,0.6,11.5,1.8c3.1,1.2,5.6,2.8,7.5,5c1.9,2.1,3.3,4.7,4.1,7.7c0.8,3,1.2,6.2,1.2,9.8
			v39.5c-1,0.2-2.3,0.4-4.1,0.7c-1.7,0.3-3.7,0.5-5.9,0.8c-2.2,0.2-4.6,0.5-7.1,0.7c-2.6,0.2-5.1,0.3-7.6,0.3
			c-3.6,0-6.9-0.4-9.9-1.1c-3-0.7-5.6-1.9-7.8-3.5c-2.2-1.6-3.9-3.7-5.1-6.3c-1.2-2.6-1.8-5.7-1.8-9.4c0-3.5,0.7-6.5,2.1-9
			c1.4-2.5,3.3-4.5,5.8-6.1c2.4-1.5,5.3-2.7,8.5-3.4c3.2-0.7,6.7-1.1,10.2-1.1c1.1,0,2.3,0.1,3.5,0.2c1.2,0.1,2.4,0.3,3.5,0.5
			c1.1,0.2,2,0.4,2.9,0.5c0.8,0.2,1.4,0.3,1.7,0.4v-3.2c0-1.9-0.2-3.7-0.6-5.5c-0.4-1.8-1.1-3.4-2.2-4.9c-1.1-1.4-2.5-2.6-4.3-3.4
			c-1.8-0.8-4.2-1.3-7.1-1.3c-3.7,0-7,0.3-9.8,0.8c-2.8,0.5-4.9,1.1-6.3,1.6l-1.3-9.4c1.5-0.7,3.9-1.3,7.3-1.9
			S1619.1,745.8,1623.1,745.8z M1624,802.5c2.7,0,5-0.1,7.1-0.2c2.1-0.1,3.8-0.3,5.2-0.7v-18.9c-0.8-0.4-2.1-0.7-4-1
			c-1.8-0.3-4-0.4-6.6-0.4c-1.7,0-3.5,0.1-5.4,0.4c-1.9,0.2-3.6,0.8-5.2,1.5c-1.6,0.8-2.9,1.8-4,3.2c-1.1,1.3-1.6,3.1-1.6,5.3
			c0,4.1,1.3,6.9,3.9,8.5S1619.6,802.5,1624,802.5z"/>
		<path class="st2" d="M1107.9,948.3c0.9,0.4,2,0.8,3.5,1.2c1.4,0.4,2.8,0.5,4.2,0.5c4.5,0,7.9-1,10.5-3c2.5-2,4.8-5.2,6.8-9.7
			c-5.1-9.7-9.9-20.1-14.3-31c-4.4-10.9-8.1-22-11-33.2h12.2c0.9,3.6,2,7.6,3.2,11.8c1.3,4.2,2.7,8.6,4.2,13c1.5,4.5,3.2,8.9,5,13.4
			c1.8,4.5,3.6,8.8,5.6,12.9c3.1-8.5,5.8-16.9,8-25.3c2.3-8.4,4.4-16.9,6.5-25.8h11.7c-2.9,11.9-6.2,23.4-9.7,34.4
			c-3.6,11-7.4,21.3-11.6,30.8c-1.6,3.7-3.3,6.8-5,9.4c-1.7,2.6-3.7,4.8-5.8,6.5c-2.1,1.7-4.5,3-7.1,3.8c-2.6,0.8-5.6,1.2-8.9,1.2
			c-0.9,0-1.8-0.1-2.8-0.2c-1-0.1-1.9-0.3-2.9-0.5c-0.9-0.2-1.8-0.4-2.6-0.7c-0.8-0.2-1.3-0.5-1.6-0.6L1107.9,948.3z"/>
		<path class="st2" d="M1222.9,937.7c-7-0.2-11.9-1.7-14.8-4.5c-2.9-2.8-4.4-7.3-4.4-13.3V844l11.3-1.9v76c0,1.9,0.2,3.4,0.5,4.6
			c0.3,1.2,0.9,2.2,1.6,2.9c0.7,0.7,1.7,1.3,2.9,1.6c1.2,0.4,2.7,0.7,4.5,0.9L1222.9,937.7z"/>
		<path class="st2" d="M1257.6,871.6c4.5,0,8.4,0.6,11.5,1.8c3.1,1.2,5.6,2.8,7.5,5c1.9,2.1,3.3,4.7,4.1,7.7c0.8,3,1.2,6.2,1.2,9.8
			v39.5c-1,0.2-2.3,0.4-4.1,0.7c-1.7,0.3-3.7,0.5-5.9,0.8c-2.2,0.2-4.6,0.5-7.1,0.7c-2.6,0.2-5.1,0.3-7.6,0.3
			c-3.6,0-6.9-0.4-9.9-1.1c-3-0.7-5.6-1.9-7.8-3.5c-2.2-1.6-3.9-3.7-5.1-6.3c-1.2-2.6-1.8-5.7-1.8-9.4c0-3.5,0.7-6.5,2.1-9
			c1.4-2.5,3.3-4.5,5.8-6.1c2.4-1.5,5.3-2.7,8.5-3.4c3.2-0.7,6.7-1.1,10.2-1.1c1.1,0,2.3,0.1,3.5,0.2c1.2,0.1,2.4,0.3,3.5,0.5
			c1.1,0.2,2,0.4,2.9,0.5c0.8,0.2,1.4,0.3,1.7,0.4v-3.2c0-1.9-0.2-3.7-0.6-5.5c-0.4-1.8-1.1-3.4-2.2-4.9c-1.1-1.4-2.5-2.6-4.3-3.4
			c-1.8-0.8-4.2-1.3-7.1-1.3c-3.7,0-7,0.3-9.8,0.8c-2.8,0.5-4.9,1.1-6.3,1.6l-1.3-9.4c1.5-0.7,3.9-1.3,7.3-1.9
			C1249.9,871.9,1253.6,871.6,1257.6,871.6z M1258.5,928.3c2.7,0,5-0.1,7.1-0.2c2.1-0.1,3.8-0.3,5.2-0.7v-18.9c-0.8-0.4-2.1-0.7-4-1
			c-1.8-0.3-4-0.4-6.6-0.4c-1.7,0-3.5,0.1-5.4,0.4c-1.9,0.2-3.6,0.8-5.2,1.5c-1.6,0.8-2.9,1.8-4,3.2c-1.1,1.3-1.6,3.1-1.6,5.3
			c0,4.1,1.3,6.9,3.9,8.5C1250.6,927.5,1254.1,928.3,1258.5,928.3z"/>
		<path class="st2" d="M1312,876c1.4-0.9,3.5-1.8,6.3-2.8c2.8-1,6-1.5,9.7-1.5c4.5,0,8.6,0.8,12.1,2.4c3.5,1.6,6.5,3.9,8.9,6.8
			c2.4,2.9,4.3,6.4,5.5,10.5c1.3,4.1,1.9,8.5,1.9,13.4c0,5.1-0.8,9.7-2.2,13.8c-1.5,4.1-3.6,7.6-6.4,10.4c-2.8,2.8-6.1,5-10,6.6
			c-3.9,1.5-8.3,2.3-13.1,2.3c-5.3,0-9.9-0.4-14-1.1c-4.1-0.7-7.4-1.5-10-2.2V844l11.3-1.9V876z M1312,926.6
			c1.1,0.3,2.7,0.6,4.8,0.9c2.1,0.3,4.6,0.4,7.7,0.4c6.1,0,11-2,14.6-6c3.6-4,5.5-9.7,5.5-17.1c0-3.2-0.3-6.3-1-9.1
			c-0.6-2.8-1.7-5.3-3.2-7.4c-1.5-2.1-3.3-3.7-5.7-4.9c-2.3-1.2-5.1-1.8-8.3-1.8c-3.1,0-5.9,0.5-8.5,1.6c-2.6,1.1-4.6,2.2-6,3.3
			V926.6z"/>
		<path class="st2" d="M1428.2,904.8c0,5-0.7,9.6-2.2,13.6c-1.5,4.1-3.5,7.5-6.1,10.5c-2.6,2.9-5.8,5.2-9.4,6.8
			c-3.6,1.6-7.6,2.4-11.9,2.4c-4.3,0-8.3-0.8-11.9-2.4c-3.6-1.6-6.8-3.8-9.4-6.8c-2.6-2.9-4.7-6.4-6.1-10.5
			c-1.5-4.1-2.2-8.6-2.2-13.6c0-4.9,0.7-9.5,2.2-13.6c1.5-4.1,3.5-7.6,6.1-10.5c2.6-2.9,5.8-5.2,9.4-6.8c3.6-1.6,7.6-2.4,11.9-2.4
			c4.3,0,8.3,0.8,11.9,2.4c3.7,1.6,6.8,3.8,9.4,6.8c2.6,2.9,4.7,6.4,6.1,10.5C1427.4,895.4,1428.2,899.9,1428.2,904.8z
			 M1416.4,904.8c0-7.1-1.6-12.8-4.8-17c-3.2-4.2-7.6-6.3-13.1-6.3c-5.5,0-9.9,2.1-13.1,6.3c-3.2,4.2-4.8,9.8-4.8,17
			c0,7.1,1.6,12.8,4.8,17c3.2,4.2,7.6,6.3,13.1,6.3c5.5,0,9.9-2.1,13.1-6.3C1414.7,917.6,1416.4,912,1416.4,904.8z"/>
		<path class="st2" d="M1467.5,871.9c1,0,2.1,0.1,3.3,0.2c1.3,0.1,2.5,0.3,3.7,0.5c1.2,0.2,2.3,0.4,3.3,0.6c1,0.2,1.8,0.4,2.3,0.5
			l-1.9,9.9c-0.9-0.3-2.4-0.7-4.4-1.2c-2.1-0.4-4.7-0.7-8-0.7c-2.1,0-4.2,0.2-6.3,0.7c-2.1,0.5-3.4,0.8-4.1,0.9v53.2h-11.3v-60.6
			c2.7-1,6-1.9,10-2.7C1458,872.3,1462.5,871.9,1467.5,871.9z"/>
		<path class="st2" d="M1511.5,871.6c4.5,0,8.4,0.6,11.5,1.8c3.1,1.2,5.6,2.8,7.5,5c1.9,2.1,3.3,4.7,4.1,7.7c0.8,3,1.2,6.2,1.2,9.8
			v39.5c-1,0.2-2.3,0.4-4.1,0.7c-1.7,0.3-3.7,0.5-5.9,0.8c-2.2,0.2-4.6,0.5-7.1,0.7c-2.6,0.2-5.1,0.3-7.6,0.3
			c-3.6,0-6.9-0.4-9.9-1.1c-3-0.7-5.6-1.9-7.8-3.5c-2.2-1.6-3.9-3.7-5.1-6.3c-1.2-2.6-1.8-5.7-1.8-9.4c0-3.5,0.7-6.5,2.1-9
			c1.4-2.5,3.3-4.5,5.8-6.1c2.4-1.5,5.3-2.7,8.5-3.4c3.2-0.7,6.7-1.1,10.2-1.1c1.1,0,2.3,0.1,3.5,0.2c1.2,0.1,2.4,0.3,3.5,0.5
			c1.1,0.2,2,0.4,2.9,0.5c0.8,0.2,1.4,0.3,1.7,0.4v-3.2c0-1.9-0.2-3.7-0.6-5.5c-0.4-1.8-1.1-3.4-2.2-4.9c-1.1-1.4-2.5-2.6-4.3-3.4
			c-1.8-0.8-4.2-1.3-7.1-1.3c-3.7,0-7,0.3-9.8,0.8c-2.8,0.5-4.9,1.1-6.3,1.6l-1.3-9.4c1.5-0.7,3.9-1.3,7.3-1.9
			C1503.8,871.9,1507.5,871.6,1511.5,871.6z M1512.5,928.3c2.7,0,5-0.1,7.1-0.2c2.1-0.1,3.8-0.3,5.2-0.7v-18.9c-0.8-0.4-2.1-0.7-4-1
			c-1.8-0.3-4-0.4-6.6-0.4c-1.7,0-3.5,0.1-5.4,0.4c-1.9,0.2-3.6,0.8-5.2,1.5c-1.6,0.8-2.9,1.8-4,3.2c-1.1,1.3-1.6,3.1-1.6,5.3
			c0,4.1,1.3,6.9,3.9,8.5C1504.5,927.5,1508,928.3,1512.5,928.3z"/>
		<path class="st2" d="M1565.2,873.2h24v9.5h-24v29.2c0,3.2,0.2,5.8,0.7,7.9c0.5,2.1,1.2,3.7,2.2,4.9c1,1.2,2.2,2,3.6,2.5
			c1.5,0.5,3.2,0.7,5.1,0.7c3.4,0,6.1-0.4,8.2-1.2c2.1-0.8,3.5-1.3,4.3-1.6l2.2,9.4c-1.1,0.6-3.1,1.3-6,2.1
			c-2.8,0.8-6.1,1.3-9.7,1.3c-4.3,0-7.9-0.5-10.7-1.6c-2.8-1.1-5-2.7-6.7-4.9c-1.7-2.2-2.9-4.9-3.6-8.1c-0.7-3.2-1-6.9-1-11.1v-56.5
			l11.3-1.9V873.2z"/>
		<path class="st2" d="M1657.6,904.8c0,5-0.7,9.6-2.2,13.6c-1.5,4.1-3.5,7.5-6.1,10.5c-2.6,2.9-5.8,5.2-9.4,6.8
			c-3.6,1.6-7.6,2.4-11.9,2.4c-4.3,0-8.3-0.8-11.9-2.4s-6.8-3.8-9.4-6.8c-2.6-2.9-4.7-6.4-6.1-10.5c-1.5-4.1-2.2-8.6-2.2-13.6
			c0-4.9,0.7-9.5,2.2-13.6c1.5-4.1,3.5-7.6,6.1-10.5c2.6-2.9,5.8-5.2,9.4-6.8s7.6-2.4,11.9-2.4c4.3,0,8.3,0.8,11.9,2.4
			c3.7,1.6,6.8,3.8,9.4,6.8c2.6,2.9,4.7,6.4,6.1,10.5C1656.9,895.4,1657.6,899.9,1657.6,904.8z M1645.8,904.8c0-7.1-1.6-12.8-4.8-17
			c-3.2-4.2-7.6-6.3-13.1-6.3c-5.5,0-9.9,2.1-13.1,6.3c-3.2,4.2-4.8,9.8-4.8,17c0,7.1,1.6,12.8,4.8,17c3.2,4.2,7.6,6.3,13.1,6.3
			c5.5,0,9.9-2.1,13.1-6.3C1644.2,917.6,1645.8,912,1645.8,904.8z"/>
		<path class="st2" d="M1696.9,871.9c1,0,2.1,0.1,3.3,0.2c1.3,0.1,2.5,0.3,3.7,0.5c1.2,0.2,2.3,0.4,3.3,0.6c1,0.2,1.8,0.4,2.3,0.5
			l-1.9,9.9c-0.9-0.3-2.4-0.7-4.4-1.2c-2.1-0.4-4.7-0.7-8-0.7c-2.1,0-4.2,0.2-6.3,0.7c-2.1,0.5-3.4,0.8-4.1,0.9v53.2h-11.3v-60.6
			c2.7-1,6-1.9,10-2.7C1687.5,872.3,1692,871.9,1696.9,871.9z"/>
		<path class="st2" d="M1726.1,861.8c-2,0-3.8-0.7-5.2-2c-1.4-1.3-2.1-3.1-2.1-5.4c0-2.3,0.7-4.1,2.1-5.4c1.4-1.3,3.1-2,5.2-2
			c2,0,3.7,0.7,5.2,2c1.4,1.3,2.1,3.1,2.1,5.4c0,2.3-0.7,4.1-2.1,5.4S1728.2,861.8,1726.1,861.8z M1731.8,936.5h-11.3v-63.3h11.3
			V936.5z"/>
		<path class="st2" d="M1807.2,904.8c0,5-0.7,9.6-2.2,13.6c-1.5,4.1-3.5,7.5-6.1,10.5c-2.6,2.9-5.8,5.2-9.4,6.8
			c-3.6,1.6-7.6,2.4-11.9,2.4c-4.3,0-8.3-0.8-11.9-2.4c-3.6-1.6-6.8-3.8-9.4-6.8c-2.6-2.9-4.7-6.4-6.1-10.5
			c-1.5-4.1-2.2-8.6-2.2-13.6c0-4.9,0.7-9.5,2.2-13.6c1.5-4.1,3.5-7.6,6.1-10.5c2.6-2.9,5.8-5.2,9.4-6.8c3.6-1.6,7.6-2.4,11.9-2.4
			c4.3,0,8.3,0.8,11.9,2.4c3.7,1.6,6.8,3.8,9.4,6.8c2.6,2.9,4.7,6.4,6.1,10.5C1806.4,895.4,1807.2,899.9,1807.2,904.8z
			 M1795.4,904.8c0-7.1-1.6-12.8-4.8-17c-3.2-4.2-7.6-6.3-13.1-6.3c-5.5,0-9.9,2.1-13.1,6.3c-3.2,4.2-4.8,9.8-4.8,17
			c0,7.1,1.6,12.8,4.8,17c3.2,4.2,7.6,6.3,13.1,6.3c5.5,0,9.9-2.1,13.1-6.3C1793.8,917.6,1795.4,912,1795.4,904.8z"/>
		<path class="st2" d="M1156.2,969.9l11.3-1.9v92.6c-2.6,0.7-5.9,1.5-10,2.2c-4.1,0.7-8.7,1.1-14,1.1c-4.9,0-9.2-0.8-13.1-2.3
			c-3.9-1.5-7.2-3.7-10-6.6c-2.8-2.8-4.9-6.3-6.4-10.4c-1.5-4.1-2.3-8.7-2.3-13.8c0-4.9,0.6-9.3,1.9-13.4c1.3-4.1,3.1-7.5,5.5-10.5
			c2.4-2.9,5.4-5.2,8.9-6.8s7.6-2.4,12.1-2.4c3.6,0,6.9,0.5,9.7,1.5c2.8,1,4.9,1.9,6.3,2.8V969.9z M1156.2,1012.4
			c-1.4-1.1-3.4-2.2-6-3.3c-2.6-1.1-5.4-1.6-8.5-1.6c-3.2,0-6,0.6-8.3,1.8c-2.3,1.2-4.2,2.8-5.7,4.9c-1.5,2.1-2.5,4.5-3.2,7.4
			c-0.7,2.8-1,5.9-1,9.1c0,7.4,1.8,13.1,5.5,17.1c3.6,4,8.5,6,14.6,6c3.1,0,5.7-0.1,7.7-0.4c2.1-0.3,3.7-0.6,4.8-0.9V1012.4z"/>
		<path class="st2" d="M1183.5,1030.8c0-5.6,0.8-10.5,2.4-14.7c1.6-4.2,3.8-7.6,6.5-10.4c2.7-2.8,5.8-4.8,9.2-6.2
			c3.5-1.4,7.1-2.1,10.7-2.1c8.5,0,15,2.7,19.6,8c4.5,5.3,6.8,13.4,6.8,24.3c0,0.5,0,1.1,0,1.9c0,0.8,0,1.5-0.1,2.1h-43.3
			c0.5,6.6,2.4,11.6,5.7,15c3.3,3.4,8.5,5.1,15.6,5.1c4,0,7.3-0.3,10-1c2.7-0.7,4.8-1.4,6.1-2l1.6,9.5c-1.4,0.7-3.8,1.5-7.2,2.3
			s-7.4,1.2-11.7,1.2c-5.5,0-10.3-0.8-14.3-2.5c-4-1.7-7.3-4-9.9-6.9c-2.6-2.9-4.5-6.4-5.8-10.4
			C1184.1,1040,1183.5,1035.6,1183.5,1030.8z M1226.9,1024.6c0.1-5.1-1.2-9.3-3.8-12.6c-2.6-3.3-6.3-4.9-10.9-4.9
			c-2.6,0-4.9,0.5-6.9,1.5c-2,1-3.7,2.3-5,4c-1.4,1.6-2.5,3.5-3.2,5.6c-0.8,2.1-1.3,4.3-1.5,6.4H1226.9z"/>
	</g>
	<g>
		<path class="st2" d="M1277.4,1001.4c2.6-0.6,6-1.3,10.2-2.1c4.2-0.7,9.1-1.1,14.7-1.1c4,0,7.4,0.5,10.2,1.6c2.7,1.1,5,2.7,6.9,4.8
			c0.6-0.4,1.5-1,2.7-1.7c1.2-0.7,2.7-1.4,4.5-2.1c1.8-0.7,3.8-1.3,5.9-1.8c2.2-0.5,4.5-0.8,7-0.8c4.8,0,8.8,0.7,11.9,2.1
			c3.1,1.4,5.5,3.4,7.2,6c1.7,2.6,2.9,5.7,3.5,9.2c0.6,3.6,0.9,7.4,0.9,11.6v35.4h-11.3v-32.9c0-3.7-0.2-6.9-0.5-9.6
			c-0.4-2.7-1.1-4.9-2.1-6.7c-1-1.8-2.4-3.1-4.1-3.9c-1.7-0.8-4-1.3-6.7-1.3c-3.8,0-6.9,0.5-9.4,1.5c-2.5,1-4.1,1.9-5,2.7
			c0.6,2.1,1.1,4.4,1.5,6.9c0.3,2.5,0.5,5.1,0.5,7.9v35.4h-11.3v-32.9c0-3.7-0.2-6.9-0.6-9.6c-0.4-2.7-1.1-4.9-2.1-6.7
			c-1-1.8-2.4-3.1-4.1-3.9c-1.7-0.8-3.9-1.3-6.6-1.3c-1.1,0-2.3,0-3.6,0.1c-1.3,0.1-2.5,0.2-3.7,0.3c-1.2,0.1-2.2,0.3-3.2,0.4
			c-1,0.2-1.6,0.3-1.9,0.4v53.2h-11.3V1001.4z"/>
		<path class="st2" d="M1402.1,998c4.5,0,8.3,0.6,11.4,1.8c3.1,1.2,5.6,2.8,7.5,5c1.9,2.1,3.2,4.7,4.1,7.6c0.8,2.9,1.2,6.2,1.2,9.8
			v39.4c-1,0.2-2.3,0.4-4.1,0.7c-1.7,0.3-3.7,0.5-5.9,0.8c-2.2,0.2-4.5,0.5-7.1,0.7c-2.5,0.2-5.1,0.3-7.6,0.3
			c-3.6,0-6.8-0.4-9.8-1.1c-3-0.7-5.6-1.9-7.8-3.5c-2.2-1.6-3.9-3.7-5.1-6.2c-1.2-2.6-1.8-5.7-1.8-9.3c0-3.5,0.7-6.5,2.1-9
			c1.4-2.5,3.3-4.5,5.8-6.1s5.2-2.7,8.5-3.4c3.2-0.7,6.6-1.1,10.2-1.1c1.1,0,2.3,0.1,3.5,0.2c1.2,0.1,2.4,0.3,3.5,0.5
			c1.1,0.2,2,0.4,2.8,0.5c0.8,0.2,1.4,0.3,1.7,0.4v-3.1c0-1.9-0.2-3.7-0.6-5.5c-0.4-1.8-1.1-3.4-2.2-4.8c-1.1-1.4-2.5-2.5-4.3-3.4
			c-1.8-0.8-4.2-1.3-7.1-1.3c-3.7,0-7,0.3-9.8,0.8c-2.8,0.5-4.9,1.1-6.2,1.6l-1.3-9.3c1.5-0.6,3.9-1.3,7.3-1.9
			C1394.4,998.3,1398.1,998,1402.1,998z M1403,1054.5c2.7,0,5-0.1,7.1-0.2c2.1-0.1,3.8-0.3,5.2-0.7v-18.8c-0.8-0.4-2.1-0.7-3.9-1
			c-1.8-0.3-4-0.4-6.6-0.4c-1.7,0-3.5,0.1-5.4,0.4c-1.9,0.2-3.6,0.7-5.2,1.5c-1.6,0.8-2.9,1.8-3.9,3.2c-1.1,1.3-1.6,3.1-1.6,5.3
			c0,4,1.3,6.8,3.9,8.4C1395.1,1053.7,1398.6,1054.5,1403,1054.5z"/>
		<path class="st2" d="M1455.5,999.6h23.9v9.4h-23.9v29.1c0,3.2,0.2,5.8,0.7,7.8c0.5,2.1,1.2,3.7,2.2,4.8c1,1.2,2.2,2,3.6,2.5
			c1.5,0.5,3.2,0.7,5.1,0.7c3.4,0,6.1-0.4,8.2-1.2c2.1-0.8,3.5-1.3,4.3-1.6l2.2,9.3c-1.1,0.6-3.1,1.3-5.9,2.1
			c-2.8,0.8-6.1,1.3-9.7,1.3c-4.3,0-7.8-0.5-10.6-1.6c-2.8-1.1-5-2.7-6.7-4.9c-1.7-2.2-2.9-4.9-3.6-8.1c-0.7-3.2-1-6.9-1-11.1V982
			l11.3-1.9V999.6z"/>
		<path class="st2" d="M1488.9,1031.2c0-5.6,0.8-10.4,2.4-14.6c1.6-4.2,3.8-7.6,6.4-10.4c2.7-2.7,5.7-4.8,9.2-6.2
			c3.5-1.4,7-2.1,10.7-2.1c8.5,0,15,2.6,19.5,7.9c4.5,5.3,6.8,13.3,6.8,24.2c0,0.5,0,1.1,0,1.9c0,0.8,0,1.5-0.1,2.1h-43.1
			c0.5,6.5,2.4,11.5,5.7,14.9c3.3,3.4,8.5,5.1,15.5,5.1c4,0,7.3-0.3,10-1c2.7-0.7,4.7-1.4,6.1-2l1.6,9.4c-1.4,0.7-3.8,1.5-7.2,2.3
			c-3.4,0.8-7.3,1.2-11.7,1.2c-5.5,0-10.2-0.8-14.2-2.5c-4-1.7-7.3-3.9-9.9-6.8c-2.6-2.9-4.5-6.4-5.8-10.4
			S1488.9,1036,1488.9,1031.2z M1532.2,1025c0.1-5.1-1.2-9.3-3.8-12.5c-2.6-3.3-6.2-4.9-10.8-4.9c-2.6,0-4.9,0.5-6.8,1.5
			c-2,1-3.7,2.3-5,3.9c-1.4,1.6-2.4,3.5-3.2,5.6c-0.8,2.1-1.3,4.2-1.5,6.4H1532.2z"/>
		<path class="st2" d="M1583.4,998.3c1,0,2.1,0.1,3.3,0.2c1.3,0.1,2.5,0.3,3.7,0.5c1.2,0.2,2.3,0.4,3.3,0.6c1,0.2,1.8,0.4,2.2,0.5
			l-1.9,9.8c-0.9-0.3-2.4-0.7-4.4-1.2c-2.1-0.4-4.7-0.7-7.9-0.7c-2.1,0-4.2,0.2-6.2,0.7c-2.1,0.4-3.4,0.7-4.1,0.9v52.9h-11.3v-60.3
			c2.7-1,6-1.9,9.9-2.7C1574,998.7,1578.5,998.3,1583.4,998.3z"/>
		<path class="st2" d="M1612.5,988.2c-2,0-3.7-0.7-5.1-2c-1.4-1.3-2.1-3.1-2.1-5.4c0-2.3,0.7-4.1,2.1-5.4c1.4-1.3,3.1-2,5.1-2
			c2,0,3.7,0.7,5.1,2c1.4,1.3,2.1,3.1,2.1,5.4c0,2.3-0.7,4.1-2.1,5.4C1616.2,987.6,1614.5,988.2,1612.5,988.2z M1618.2,1062.6h-11.3
			v-63h11.3V1062.6z"/>
		<path class="st2" d="M1657.9,998c4.5,0,8.3,0.6,11.4,1.8c3.1,1.2,5.6,2.8,7.5,5c1.9,2.1,3.2,4.7,4.1,7.6c0.8,2.9,1.2,6.2,1.2,9.8
			v39.4c-1,0.2-2.3,0.4-4.1,0.7c-1.7,0.3-3.7,0.5-5.9,0.8c-2.2,0.2-4.5,0.5-7.1,0.7c-2.5,0.2-5.1,0.3-7.6,0.3
			c-3.6,0-6.8-0.4-9.8-1.1c-3-0.7-5.6-1.9-7.8-3.5c-2.2-1.6-3.9-3.7-5.1-6.2c-1.2-2.6-1.8-5.7-1.8-9.3c0-3.5,0.7-6.5,2.1-9
			c1.4-2.5,3.3-4.5,5.8-6.1s5.2-2.7,8.5-3.4c3.2-0.7,6.6-1.1,10.2-1.1c1.1,0,2.3,0.1,3.5,0.2c1.2,0.1,2.4,0.3,3.5,0.5
			c1.1,0.2,2,0.4,2.8,0.5c0.8,0.2,1.4,0.3,1.7,0.4v-3.1c0-1.9-0.2-3.7-0.6-5.5c-0.4-1.8-1.1-3.4-2.2-4.8c-1.1-1.4-2.5-2.5-4.3-3.4
			c-1.8-0.8-4.2-1.3-7.1-1.3c-3.7,0-7,0.3-9.8,0.8c-2.8,0.5-4.9,1.1-6.2,1.6l-1.3-9.3c1.5-0.6,3.9-1.3,7.3-1.9
			C1650.3,998.3,1653.9,998,1657.9,998z M1658.9,1054.5c2.7,0,5-0.1,7.1-0.2c2.1-0.1,3.8-0.3,5.2-0.7v-18.8c-0.8-0.4-2.1-0.7-3.9-1
			c-1.8-0.3-4-0.4-6.6-0.4c-1.7,0-3.5,0.1-5.4,0.4c-1.9,0.2-3.6,0.7-5.2,1.5c-1.6,0.8-2.9,1.8-3.9,3.2c-1.1,1.3-1.6,3.1-1.6,5.3
			c0,4,1.3,6.8,3.9,8.4C1650.9,1053.7,1654.4,1054.5,1658.9,1054.5z"/>
		<path class="st2" d="M1719.7,1063.8c-6.9-0.2-11.9-1.7-14.8-4.5c-2.9-2.8-4.4-7.2-4.4-13.2v-75.6l11.3-1.9v75.7
			c0,1.9,0.2,3.4,0.5,4.6c0.3,1.2,0.8,2.2,1.6,2.9c0.7,0.7,1.7,1.3,2.9,1.6s2.7,0.7,4.5,0.9L1719.7,1063.8z"/>
		<path class="st2" d="M1730.3,1031.2c0-5.6,0.8-10.4,2.4-14.6c1.6-4.2,3.8-7.6,6.4-10.4c2.7-2.7,5.7-4.8,9.2-6.2
			c3.5-1.4,7-2.1,10.7-2.1c8.5,0,15,2.6,19.5,7.9c4.5,5.3,6.8,13.3,6.8,24.2c0,0.5,0,1.1,0,1.9c0,0.8,0,1.5-0.1,2.1h-43.1
			c0.5,6.5,2.4,11.5,5.7,14.9c3.3,3.4,8.5,5.1,15.5,5.1c4,0,7.3-0.3,10-1c2.7-0.7,4.7-1.4,6.1-2l1.6,9.4c-1.4,0.7-3.8,1.5-7.2,2.3
			c-3.4,0.8-7.3,1.2-11.7,1.2c-5.5,0-10.2-0.8-14.2-2.5c-4-1.7-7.3-3.9-9.9-6.8c-2.6-2.9-4.5-6.4-5.8-10.4
			S1730.3,1036,1730.3,1031.2z M1773.6,1025c0.1-5.1-1.2-9.3-3.8-12.5c-2.6-3.3-6.2-4.9-10.8-4.9c-2.6,0-4.9,0.5-6.8,1.5
			c-2,1-3.7,2.3-5,3.9c-1.4,1.6-2.4,3.5-3.2,5.6c-0.8,2.1-1.3,4.2-1.5,6.4H1773.6z"/>
		<path class="st2" d="M1816.2,1054.5c4.6,0,8-0.6,10.2-1.8c2.2-1.2,3.3-3.2,3.3-5.8c0-2.7-1.1-4.9-3.3-6.5
			c-2.2-1.6-5.8-3.4-10.8-5.5c-2.4-1-4.7-2-7-3c-2.2-1-4.1-2.2-5.8-3.6c-1.6-1.4-2.9-3-3.9-5c-1-1.9-1.5-4.3-1.5-7.1
			c0-5.6,2.1-10,6.2-13.3c4.1-3.3,9.7-4.9,16.8-4.9c1.8,0,3.6,0.1,5.3,0.3c1.8,0.2,3.4,0.4,5,0.7c1.5,0.3,2.9,0.6,4.1,0.9
			c1.2,0.3,2.1,0.6,2.7,0.8l-2.1,9.7c-1.2-0.6-3.1-1.3-5.7-2c-2.6-0.7-5.7-1-9.3-1c-3.2,0-5.9,0.6-8.2,1.9c-2.3,1.3-3.5,3.2-3.5,5.9
			c0,1.4,0.3,2.6,0.8,3.6c0.5,1.1,1.3,2,2.4,2.8c1.1,0.8,2.4,1.6,4.1,2.4c1.6,0.7,3.6,1.5,5.8,2.3c3,1.1,5.7,2.2,8,3.3
			c2.3,1.1,4.3,2.4,6,3.8c1.7,1.5,2.9,3.2,3.8,5.3c0.9,2.1,1.3,4.6,1.3,7.6c0,5.8-2.2,10.2-6.5,13.2c-4.3,3-10.5,4.5-18.5,4.5
			c-5.6,0-9.9-0.5-13.1-1.4s-5.3-1.6-6.4-2.1l2.1-9.7c1.3,0.5,3.4,1.2,6.2,2.2C1807.8,1054,1811.5,1054.5,1816.2,1054.5z"/>
	</g>
</g>
</svg>
